<?xml version="1.0" encoding="utf-8"?>
<!-- Generator: Adobe Illustrator 27.1.1, SVG Export Plug-In . SVG Version: 6.00 Build 0)  -->
<svg version="1.1" id="Ebene_1" xmlns="http://www.w3.org/2000/svg" xmlns:xlink="http://www.w3.org/1999/xlink" x="0px" y="0px"
	 viewBox="0 0 21.6 8.8" style="enable-background:new 0 0 21.6 8.8;" xml:space="preserve">
<style type="text/css">
	.st0{fill:#FF000F;}
</style>
<g>
	<path class="st0" d="M11.8,8.8h0.5l0,0c1.5-0.1,2.6-1.2,2.6-2.6c0-0.5-0.1-1-0.3-1.3h-2.7L11.8,8.8L11.8,8.8z"/>
	<rect x="9" y="4.8" class="st0" width="2.5" height="4"/>
	<path class="st0" d="M14.3,4.6c-0.2-0.4-0.6-0.6-1-0.8c0.5-0.3,0.8-0.9,0.8-1.4c0-1-0.8-1.8-1.8-1.8h-0.6v4H14.3z"/>
	<rect x="9" y="0.6" class="st0" width="2.5" height="4"/>
	<path class="st0" d="M18.5,8.8H19l0,0c1.5-0.1,2.6-1.2,2.6-2.6c0-0.5-0.1-1-0.3-1.3h-2.7L18.5,8.8L18.5,8.8z"/>
	<rect x="15.8" y="4.8" class="st0" width="2.5" height="4"/>
	<path class="st0" d="M21.1,4.6c-0.2-0.4-0.6-0.6-1-0.8c0.5-0.3,0.8-0.9,0.8-1.4c0-1-0.8-1.8-1.8-1.8h-0.6v4H21.1z"/>
	<rect x="15.8" y="0.6" class="st0" width="2.5" height="4"/>
	<polygon class="st0" points="1.5,4.8 0,8.8 2.1,8.8 2.7,7.1 4,7.1 4,4.8 	"/>
	<polygon class="st0" points="4,0.6 2.9,0.6 1.5,4.6 4,4.6 	"/>
	<polygon class="st0" points="4.3,7.1 5.6,7.1 6.2,8.8 8.3,8.8 6.8,4.8 4.3,4.8 	"/>
	<polygon class="st0" points="6.8,4.6 5.3,0.6 4.3,0.6 4.3,4.6 	"/>
</g>
</svg>
